mtllib 01_3.mtl

v  -16.0318 3.3503 21.2746
v  -21.3965 7.0098 20.8600
v  -21.3964 4.4813 24.2862
v  -37.2148 4.4813 24.2862
v  -21.3965 0.7422 24.4889
v  -16.0318 1.6575 21.3663
v  -21.3964 -2.0172 21.3494
v  -37.2148 -2.5057 21.3494
v  -16.9049 -0.8105 20.6508
v  -21.3964 -2.6874 16.7067
v  -16.0318 1.4791 16.2922
v  -21.3964 0.3481 13.2806
v  -37.2148 0.3481 13.2806
v  -21.3964 4.0872 13.0779
v  -37.2148 4.0872 13.0779
v  -16.0318 3.1719 16.2004
v  -21.3964 6.8466 16.2174
v  -16.9049 5.6400 16.9160
v  -21.3964 4.4813 -24.2862
v  -21.3965 7.0098 -20.8600
v  -16.0318 3.3503 -21.2746
v  -37.2148 4.4813 -24.2862
v  -21.3965 0.7422 -24.4889
v  -21.3964 -2.5057 -21.3494
v  -16.0318 1.6575 -21.3663
v  -37.2148 -2.5966 -19.0281
v  -21.3964 -2.1804 -16.7067
v  -16.9049 -0.8105 -20.6508
v  -21.3964 0.3481 -13.2806
v  -16.0318 1.4791 -16.2922
v  -21.3964 4.0872 -13.0779
v  -37.2148 4.0872 -13.0779
v  -21.3964 6.8466 -16.2174
v  -16.0318 3.1719 -16.2004
v  -16.9049 5.6400 -16.9160
v  -37.2148 -2.6874 16.7067
v  -32.1996 -3.3211 56.0143
v  -39.5013 -3.0290 12.6269
v  -11.8578 -3.0447 11.9575
v  -11.8439 -4.1222 -11.9563
v  -39.5013 -3.0290 -12.6269
v  -37.5739 -2.4079 -23.8060
v  -32.1996 -3.3211 -56.0143
v  -17.7258 7.1055 5.6915
v  -3.0282 -2.3880 3.7295
v  6.0735 2.3609 3.1729
v  6.0735 2.8744 -3.1729
v  -17.7258 7.1234 -5.6915
v  -7.7386 -2.9192 11.4878
v  -3.9303 -7.5661 3.8681
v  -8.3958 -5.6099 11.5635
v  -32.9862 8.5554 -5.6959
v  -41.6689 4.3956 -12.6269
v  -41.6689 4.3956 12.6269
v  -41.6689 8.3530 5.6915
v  -17.7259 3.1348 -12.6269
v  -8.3958 -5.6099 -11.5635
v  -3.9303 -7.5661 -3.8681
v  39.7254 2.3242 -2.7637
v  39.6064 -6.4504 -2.4637
v  39.6064 -6.4504 2.5119
v  -16.0318 0.3344 17.8433
v  -24.3433 2.9886 16.8255
v  -16.0318 4.4950 19.7235
v  -24.3433 1.8408 20.7412
v  -24.3433 1.8408 -20.7412
v  -16.0318 4.4950 -19.7235
v  -24.3433 2.9886 -16.8255
v  -16.0318 0.3344 -17.8433
v  -17.7259 3.1348 12.6269
v  -3.0282 -2.3880 -3.7295
v  -7.7386 -2.9192 -11.4878
v  39.7254 2.3242 1.9606
v  47.0425 -5.4006 -0.1064
v  -41.6689 7.9406 -5.6959
# 75 vertices

vn 0.9937 0.1111 -0.0170
vn 0.1627 0.9437 0.2881
vn 0.2485 0.4540 0.8556
vn -0.6199 0.4311 0.6556
vn 0.2471 -0.3667 0.8969
vn 0.9442 0.1457 0.2954
vn 0.4940 0.3575 0.7926
vn -0.7171 0.6233 0.3119
vn 0.5946 -0.6974 0.4000
vn 0.3891 0.4750 -0.7893
vn 0.9970 -0.0775 0.0050
vn 0.2507 -0.4174 -0.8735
vn -0.6297 -0.3379 -0.6995
vn 0.2507 0.3699 -0.8946
vn -0.6103 0.5015 -0.6132
vn 0.9442 -0.1457 -0.2954
vn 0.1306 0.9207 -0.3677
vn 0.5831 0.7160 -0.3840
vn 0.2485 0.4540 -0.8556
vn 0.1627 0.9437 -0.2881
vn 0.9937 0.1111 0.0170
vn -0.6326 0.3562 -0.6877
vn 0.2183 -0.3541 -0.9094
vn 0.2083 -0.8688 -0.4492
vn 0.9447 0.1532 -0.2898
vn -0.4406 0.8970 0.0361
vn 0.5146 0.2815 0.8099
vn 0.6075 -0.7044 -0.3670
vn 0.2212 -0.4672 0.8560
vn 0.9937 -0.1111 -0.0170
vn 0.2507 0.3699 0.8946
vn -0.6325 0.2996 0.7143
vn 0.1306 0.9207 0.3677
vn 0.9442 -0.1457 0.2954
vn 0.5831 0.7160 0.3840
vn -0.5676 0.7712 -0.2882
vn -0.1336 -0.0183 0.9909
vn -0.6621 -0.0262 -0.7489
vn 0.7846 -0.0230 -0.6196
vn 0.9072 -0.1174 0.4039
vn -0.6908 -0.0335 0.7222
vn -0.6652 0.7389 -0.1073
vn 0.0090 -0.0195 -0.9998
vn 0.2080 0.9284 0.3078
vn 0.3557 0.0886 0.9304
vn 0.1054 0.6648 0.7395
vn 0.1028 0.7279 -0.6780
vn 0.2212 0.9275 -0.3015
vn 0.5911 0.2680 0.7608
vn 0.2109 -0.8626 0.4598
vn 0.3615 -0.6479 0.6705
vn -0.6522 -0.7578 0.0166
vn 0.0256 0.9655 -0.2592
vn -0.8232 0.3772 -0.4243
vn -0.8231 0.3889 0.4138
vn -0.6403 0.7410 0.2023
vn 0.2054 0.4880 -0.8483
vn -0.6522 -0.7578 -0.0166
vn 0.3527 -0.6200 -0.7008
vn 0.2086 -0.8632 -0.4598
vn 0.3509 0.6790 -0.6449
vn 0.1671 -0.6964 -0.6979
vn 0.1806 -0.6597 0.7296
vn 0.0245 0.0072 -0.9997
vn -0.3107 0.4108 -0.8571
vn 0.9785 -0.1464 0.1455
vn -0.3108 -0.4108 0.8571
vn 0.9785 0.1464 -0.1455
vn 0.9785 0.1464 0.1455
vn -0.3108 -0.4108 -0.8571
vn 0.9785 -0.1464 -0.1455
vn -0.3108 0.4108 0.8571
vn 0.0242 0.0071 0.9997
vn 0.1978 0.4878 0.8502
vn 0.3557 0.0902 -0.9302
vn 0.5912 0.2677 -0.7608
vn 0.3485 0.7110 0.6107
vn 0.9526 -0.3043 0.0043
vn 0.0148 -0.2230 -0.9747
vn -0.6865 0.7032 -0.1848
vn 0.0913 -0.0179 -0.9957
vn 0.0943 -0.0182 0.9954
vn 0.0240 -0.1201 0.9925
# 83 vertex normals

vt 0.4562 0.5536 0.0000
vt 0.4259 0.5419 0.0000
vt 0.4605 0.5423 0.0000
vt 0.8189 0.5832 0.0000
vt 0.6904 0.5832 0.0000
vt 0.6904 0.5554 0.0000
vt 0.2868 0.8229 0.0000
vt 0.2822 0.7864 0.0000
vt 0.3126 0.7864 0.0000
vt 0.2822 0.6579 0.0000
vt 0.3498 0.6637 0.0000
vt 0.3396 0.6703 0.0000
vt 0.3320 0.6372 0.0000
vt 0.7021 0.0060 0.0000
vt 0.8306 0.0060 0.0000
vt 0.8306 0.0315 0.0000
vt 0.4274 0.3116 0.0000
vt 0.4639 0.3059 0.0000
vt 0.4639 0.3436 0.0000
vt 0.9632 0.8484 0.0000
vt 0.9749 0.8181 0.0000
vt 0.9745 0.8527 0.0000
vt 0.7021 0.5861 0.0000
vt 0.8306 0.5861 0.0000
vt 0.8306 0.6139 0.0000
vt 0.5640 0.0493 0.0000
vt 0.6005 0.0447 0.0000
vt 0.6005 0.0751 0.0000
vt 0.7290 0.0751 0.0000
vt 0.3938 0.5598 0.0000
vt 0.3872 0.5496 0.0000
vt 0.4203 0.5419 0.0000
vt 0.8189 0.4922 0.0000
vt 0.6904 0.5177 0.0000
vt 0.6904 0.4922 0.0000
vt 0.6540 0.5234 0.0000
vt 0.9889 0.6855 0.0000
vt 0.9942 0.7197 0.0000
vt 0.9783 0.6913 0.0000
vt 0.8736 0.1875 0.0000
vt 0.8457 0.1875 0.0000
vt 0.8457 0.0590 0.0000
vt 0.6041 0.2574 0.0000
vt 0.6041 0.2270 0.0000
vt 0.6406 0.2316 0.0000
vt 0.9452 0.9681 0.0000
vt 0.9458 0.9341 0.0000
vt 0.9572 0.9385 0.0000
vt 0.7021 0.6447 0.0000
vt 0.7021 0.6192 0.0000
vt 0.8306 0.6192 0.0000
vt 0.2381 0.5756 0.0000
vt 0.2381 0.5379 0.0000
vt 0.2745 0.5436 0.0000
vt 0.5692 0.1152 0.0000
vt 0.5640 0.0810 0.0000
vt 0.5798 0.1094 0.0000
vt 0.3223 0.0502 0.0000
vt 0.3223 0.0781 0.0000
vt 0.1939 0.0502 0.0000
vt 0.4403 0.9673 0.0000
vt 0.4403 0.9976 0.0000
vt 0.4038 0.9931 0.0000
vt 0.5688 0.9673 0.0000
vt 0.8899 0.2325 0.0000
vt 0.9239 0.2332 0.0000
vt 0.9195 0.2445 0.0000
vt 0.9368 0.1875 0.0000
vt 0.9113 0.1875 0.0000
vt 0.9368 0.0590 0.0000
vt 0.9056 0.2240 0.0000
vt 0.3738 0.0694 0.0000
vt 0.5023 0.0694 0.0000
vt 0.5023 0.0736 0.0000
vt 0.2360 0.7903 0.0000
vt 0.1075 0.7903 0.0000
vt 0.1482 0.5087 0.0000
vt 0.1075 0.8092 0.0000
vt 0.0889 0.8611 0.0000
vt 0.1075 0.8280 0.0000
vt 0.2360 0.8280 0.0000
vt 0.2899 0.8421 0.0000
vt 0.3913 0.7380 0.0000
vt 0.3536 0.7367 0.0000
vt 0.3178 0.6579 0.0000
vt 0.3492 0.8651 0.0000
vt 0.3154 0.8825 0.0000
vt 0.7290 0.0447 0.0000
vt 0.3049 0.4299 0.0000
vt 0.4067 0.8700 0.0000
vt 0.1189 0.3333 0.0000
vt 0.0226 0.3853 0.0000
vt 0.0280 0.1607 0.0000
vt 0.4784 0.2850 0.0000
vt 0.8135 0.2432 0.0000
vt 0.8066 0.4382 0.0000
vt 0.4122 0.7132 0.0000
vt 0.3869 0.8664 0.0000
vt 0.5540 0.4586 0.0000
vt 0.2824 0.5929 0.0000
vt 0.0005 0.4494 0.0000
vt 0.0690 0.5738 0.0000
vt 0.0212 0.6446 0.0000
vt 0.5043 0.9619 0.0000
vt 0.3110 0.9824 0.0000
vt 0.3110 0.8899 0.0000
vt 0.9390 0.8550 0.0000
vt 0.9773 0.9180 0.0000
vt 0.8579 0.9020 0.0000
vt 0.5416 0.1294 0.0000
vt 0.6537 0.0889 0.0000
vt 0.3762 0.6963 0.0000
vt 0.1870 0.9824 0.0000
vt 0.9410 0.9188 0.0000
vt 0.3148 0.3264 0.0000
vt 0.0039 0.2546 0.0000
vt 0.8685 0.9726 0.0000
vt 0.7446 0.9683 0.0000
vt 0.7466 0.9120 0.0000
vt 0.8305 0.1976 0.0000
vt 0.6537 0.2327 0.0000
vt 0.5416 0.1922 0.0000
vt 0.9333 0.5143 0.0000
vt 0.8572 0.6662 0.0000
vt 0.8457 0.3199 0.0000
vt 0.1134 0.5770 0.0000
vt 0.0778 0.9216 0.0000
vt 0.0124 0.7648 0.0000
vt 0.6540 0.5710 0.0000
vt 0.4274 0.3592 0.0000
vt 0.8579 0.2240 0.0000
vt 0.2745 0.5913 0.0000
vt 0.2284 0.5087 0.0000
vt 0.7786 0.4674 0.0000
vt 0.5831 0.3983 0.0000
vt 0.1880 0.1404 0.0000
vt 0.5342 0.1305 0.0000
vt 0.5342 0.1911 0.0000
vt 0.2491 0.6097 0.0000
vt 0.2491 0.5971 0.0000
vt 0.3166 0.6116 0.0000
vt 0.8749 0.8359 0.0000
vt 0.8623 0.8359 0.0000
vt 0.8768 0.7684 0.0000
vt 0.5852 0.5695 0.0000
vt 0.5997 0.6370 0.0000
vt 0.5871 0.6370 0.0000
vt 0.7000 0.7144 0.0000
vt 0.6855 0.6469 0.0000
vt 0.6981 0.6469 0.0000
vt 0.2681 0.3264 0.0000
vt 0.2972 0.3868 0.0000
vt 0.0726 0.3869 0.0000
vt 0.8579 0.8457 0.0000
vt 0.6248 0.9801 0.0000
vt 0.6652 0.9184 0.0000
vt 0.9330 0.3938 0.0000
vt 0.8902 0.3199 0.0000
vt 0.9672 0.2005 0.0000
vt 0.7340 0.9020 0.0000
vt 0.1165 0.8899 0.0000
vt 0.9051 0.9204 0.0000
vt 0.5067 0.9035 0.0000
vt 0.4922 0.8655 0.0000
vt 0.5481 0.8607 0.0000
vt 0.0219 0.9177 0.0000
vt 0.5043 0.9104 0.0000
vt 0.3805 0.2200 0.0000
vt 0.6696 0.8355 0.0000
vt 0.5540 0.4718 0.0000
vt 0.8066 0.4795 0.0000
vt 0.0650 0.9813 0.0000
vt 0.1880 0.1808 0.0000
vt 0.3434 0.6359 0.0000
vt 0.2491 0.6384 0.0000
vt 0.9566 0.9670 0.0000
vt 0.7267 0.6469 0.0000
vt 0.8910 0.2440 0.0000
vt 0.5585 0.6370 0.0000
vt 0.9035 0.8359 0.0000
vt 0.4216 0.5533 0.0000
vt 0.9390 0.9751 0.0000
vt 0.8923 0.9735 0.0000
vt 0.8943 0.9172 0.0000
vt 0.7309 0.4085 0.0000
vt 0.8120 0.4577 0.0000
vt 0.1203 0.3367 0.0000
vt 0.6992 0.8486 0.0000
vt 0.8985 0.7684 0.0000
vt 0.3166 0.6333 0.0000
vt 0.5635 0.5695 0.0000
vt 0.7217 0.7144 0.0000
vt 0.1137 0.1331 0.0000
vt 0.1135 0.1684 0.0000
vt 0.0557 0.1624 0.0000
vt 0.0672 0.5459 0.0000
vt 0.1251 0.5419 0.0000
vt 0.1241 0.5772 0.0000
vt 0.0392 0.3859 0.0000
vt 0.2971 0.4172 0.0000
vt 0.0445 0.4077 0.0000
vt 0.0005 0.9853 0.0000
vt 0.0680 0.9838 0.0000
vt 0.0680 0.9976 0.0000
vt 0.6406 0.2537 0.0000
vt 0.3089 0.8229 0.0000
vt 0.9783 0.4314 0.0000
vt 0.9921 0.4314 0.0000
vt 0.9906 0.4989 0.0000
vt 0.4038 0.9710 0.0000
vt 0.3498 0.0128 0.0000
vt 0.2822 0.0142 0.0000
vt 0.2822 0.0005 0.0000
vt 0.0142 0.9574 0.0000
vt 0.0005 0.9574 0.0000
vt 0.0020 0.8899 0.0000
vt 0.5640 0.0714 0.0000
vt 0.9285 0.6249 0.0000
vt 0.8658 0.7266 0.0000
vt 0.1276 0.1670 0.0000
vt 0.8306 0.6447 0.0000
vt 0.1632 0.9824 0.0000
vt 0.0650 0.5411 0.0000
vt 0.0502 0.5268 0.0000
vt 0.1288 0.5230 0.0000
vt 0.1497 0.0210 0.0000
vt 0.0185 0.2373 0.0000
vt 0.0005 0.1607 0.0000
vt 0.0183 0.1710 0.0000
vt 0.5688 0.9976 0.0000
vt 0.6316 0.9101 0.0000
vt 0.6316 0.9622 0.0000
vt 0.4204 0.3361 0.0000
vt 0.4204 0.3151 0.0000
vt 0.2816 0.5681 0.0000
vt 0.2816 0.5472 0.0000
vt 0.8811 0.2310 0.0000
vt 0.9020 0.2310 0.0000
vt 0.6469 0.5479 0.0000
vt 0.6469 0.5269 0.0000
# 240 texture coords

o Sam
g Sam
usemtl Material__110
s off
f 1/1/1 2/2/2 3/3/3 
f 4/4/4 3/5/3 2/6/2 
f 1/7/1 3/8/3 5/9/5 
f 3/8/3 4/10/4 5/9/5 
f 6/11/6 5/12/5 7/13/7 
f 8/14/8 7/15/7 5/16/5 
f 9/17/9 7/18/7 10/19/10 
f 11/20/11 10/21/10 12/22/12 
f 13/23/13 12/24/12 10/25/10 
f 11/26/11 12/27/12 14/28/14 
f 12/27/12 15/29/15 14/28/14 
f 16/30/16 14/31/14 17/32/17 
f 15/33/15 17/34/17 14/35/14 
f 18/36/18 17/34/17 2/6/2 
f 4/10/4 2/6/2 17/34/17 
f 19/37/19 20/38/20 21/39/21 
f 20/40/20 19/41/19 22/42/22 
f 23/43/23 19/44/19 21/45/21 
f 19/44/19 23/43/23 22/42/22 
f 24/46/24 23/47/23 25/48/25 
f 23/49/23 24/50/24 26/51/26 
f 27/52/27 24/53/24 28/54/28 
f 29/55/29 27/56/27 30/57/30 
f 27/58/27 29/59/29 26/60/26 
f 31/61/31 29/62/29 30/63/30 
f 29/62/29 31/61/31 32/64/32 
f 33/65/33 31/66/31 34/67/34 
f 31/68/31 33/69/33 32/70/32 
f 20/40/20 33/69/33 35/71/35 
f 33/69/33 20/40/20 22/42/22 
f 10/72/10 36/73/36 13/74/13 
f 7/75/7 8/76/8 37/77/37 
f 8/76/8 36/78/36 38/79/38 
f 36/80/36 10/81/10 39/82/39 
f 10/81/10 7/75/7 39/82/39 
f 24/83/24 27/84/27 40/85/40 
f 27/84/27 26/86/26 41/87/41 
f 13/88/13 36/89/36 8/76/8 
f 39/82/39 38/79/38 36/80/36 
f 41/87/41 40/85/40 27/84/27 
f 37/77/37 39/82/39 7/75/7 
f 26/86/26 42/90/42 41/87/41 
f 24/91/24 40/92/40 41/93/41 
f 8/76/8 38/79/38 37/77/37 
f 37/94/37 38/95/38 39/96/39 
f 24/97/24 42/90/42 26/98/26 
f 41/99/41 42/39/42 43/100/43 
f 44/101/44 45/102/45 46/103/46 
f 47/104/47 48/105/48 44/106/44 
f 49/107/49 45/108/45 44/109/44 
f 50/110/50 51/111/51 38/112/52 
f 44/106/44 48/105/48 52/113/53 
f 53/114/54 54/115/55 55/116/56 
f 52/117/53 48/118/48 56/119/57 
f 41/120/58 57/121/59 58/122/60 
f 59/123/61 60/124/62 58/125/60 
f 50/126/50 61/127/63 46/128/46 
f 2/6/2 1/129/1 18/36/18 
f 10/19/10 11/130/11 9/17/9 
f 35/71/35 21/131/21 20/40/20 
f 28/54/28 30/132/30 27/52/27 
f 53/114/54 41/99/58 38/133/52 
f 40/134/64 41/99/64 53/135/64 
f 61/136/63 50/137/50 58/138/60 
f 50/110/50 41/120/58 58/122/60 
f 62/139/65 11/140/11 63/141/66 
f 64/142/67 1/143/1 65/144/68 
f 66/145/69 21/146/21 67/147/70 
f 68/148/71 30/149/30 69/150/72 
f 17/34/17 15/33/15 4/10/4 
f 22/42/22 32/70/32 33/69/33 
f 54/151/73 38/152/73 39/153/73 
f 44/109/44 70/154/74 49/107/49 
f 48/118/48 71/155/75 72/156/76 
f 47/157/47 71/158/75 48/159/48 
f 70/154/74 44/109/44 55/160/56 
f 52/113/53 55/161/56 44/106/44 
f 56/119/57 53/162/54 52/117/53 
f 73/163/77 74/164/78 59/165/61 
f 61/127/63 73/166/77 46/128/46 
f 44/106/44 46/167/46 47/104/47 
f 24/91/24 41/93/41 43/168/43 
f 43/169/43 42/90/42 24/97/24 
f 41/170/79 40/134/79 57/171/79 
f 72/156/76 56/119/57 48/118/48 
f 74/172/78 73/166/77 61/127/63 
f 58/138/60 60/173/62 61/136/63 
f 7/13/7 9/174/9 6/11/6 
f 6/175/6 62/139/65 63/141/66 
f 25/48/25 28/176/28 24/46/24 
f 68/148/71 69/150/72 25/177/25 
f 34/67/34 35/178/35 33/65/33 
f 66/145/69 67/147/70 34/179/34 
f 16/180/16 64/142/67 65/144/68 
f 17/32/17 18/181/18 16/30/16 
f 75/182/80 52/183/53 53/184/54 
f 53/135/54 56/185/57 40/134/81 
f 72/186/76 40/134/81 56/185/57 
f 39/153/82 70/187/74 54/151/55 
f 55/160/56 54/188/55 70/154/74 
f 65/144/68 63/189/66 16/180/16 
f 63/141/66 65/190/68 6/175/6 
f 34/179/34 68/191/71 66/145/69 
f 25/177/25 66/192/69 68/148/71 
f 38/112/52 41/120/58 50/110/50 
f 50/193/50 45/194/45 49/195/49 
f 50/126/50 46/103/46 45/102/45 
f 58/125/60 71/158/75 47/157/47 
f 72/196/76 71/197/75 58/198/60 
f 49/199/49 70/187/74 39/153/82 
f 38/200/83 51/201/83 39/153/83 
f 66/202/69 25/203/25 21/204/21 
f 21/45/21 25/205/25 23/43/23 
f 5/9/5 6/206/6 1/7/1 
f 1/207/1 6/208/6 65/209/68 
f 30/63/30 34/210/34 31/61/31 
f 68/211/71 34/212/34 30/213/30 
f 11/214/11 16/215/16 63/216/66 
f 14/28/14 16/217/16 11/26/11 
f 60/124/62 59/218/61 74/219/78 
f 61/136/63 60/173/62 74/220/78 
f 38/133/52 54/115/55 53/114/54 
f 4/10/4 15/33/15 13/88/13 
f 12/27/12 13/88/13 15/29/15 
f 26/51/26 22/221/22 23/49/23 
f 55/116/56 75/222/80 53/114/54 
f 57/223/59 72/224/76 58/225/60 
f 57/171/59 40/134/81 72/186/76 
f 5/16/5 4/10/4 8/14/8 
f 8/226/8 4/10/4 13/88/13 
f 51/201/51 49/199/49 39/153/82 
f 50/227/50 49/228/49 51/229/51 
f 22/42/22 26/60/26 32/64/32 
f 29/62/29 32/64/32 26/230/26 
f 55/161/56 52/113/53 75/222/80 
f 58/125/60 47/157/47 59/123/61 
f 46/231/46 59/232/61 47/104/47 
f 62/233/65 6/234/6 9/17/9 
f 9/17/9 11/130/11 62/233/65 
f 69/235/72 30/132/30 28/54/28 
f 28/54/28 25/236/25 69/235/72 
f 67/237/70 21/131/21 35/71/35 
f 35/71/35 34/238/34 67/237/70 
f 18/36/18 1/129/1 64/239/67 
f 64/239/67 16/240/16 18/36/18 
f 59/232/61 46/231/46 73/232/77 
# 0 polygons - 146 triangles

